<svg t="1729700287655" class="icon" viewBox="0 0 1024 1024" version="1.1" xmlns="http://www.w3.org/2000/svg" p-id="4339" width="200" height="200"><path d="M309.5 656a45 46.3 0 1 0 90 0 45 46.3 0 1 0-90 0Z" p-id="4340"></path><path d="M242 604.6c0-51.1-26.1-89.4-67.5-89.4 41.4 0 67.5-44.6 67.5-95.8v-243h82.5V107H242c-41.4 0-67.5 33.1-67.5 84.2v185.1c0 51.1-26.1 101-67.5 101H62v69.4h45c19.9 0 42.2 17.3 56.2 34.7 12.1 14.9 11.7 39.7 11.4 62-0.1 3.6-0.1 7.2-0.1 10.6v185.1c0 50.9 33.8 77.8 67.5 77.8h82.5v-69.4H242V604.6z" p-id="4341"></path><path d="M467 656a45 46.3 0 1 0 90 0 45 46.3 0 1 0-90 0Z" p-id="4342"></path><path d="M624.5 656a45 46.3 0 1 0 90 0 45 46.3 0 1 0-90 0Z" p-id="4343"></path><path d="M928.2 477.3c-41.4 0-78.8-49.8-78.8-101V191.2c0-51.1-33.6-84.2-75-84.2h-75v69.4H782v243c0 24.6 0.4 51.3 14.5 68.6 14.1 17.4 33.1 27.1 53 27.1-19.9 0-39 9.8-53 27.1-14.1 17.5-14.5 37.8-14.5 62.4v243h-82.5V917H782c41.4 0 67.5-4.2 67.5-55.3V654c0-3.4-0.1-7-0.1-10.6-0.3-22.3-0.7-47 11.4-62 14.1-17.4 36.4-34.7 56.2-34.7h45v-69.4h-33.8z" p-id="4344"></path></svg>